<svg width="25" height="24" viewBox="0 0 25 24" fill="none" xmlns="http://www.w3.org/2000/svg">
<path d="M17 21C13.9624 21 11.5 18.5376 11.5 15.5C11.5 12.4624 13.9624 10 17 10C20.0376 10 22.5 12.4624 22.5 15.5C22.5 18.5376 20.0376 21 17 21Z" stroke="white" stroke-width="2"/>
<path d="M8 21C4.96243 21 2.5 18.5376 2.5 15.5C2.5 12.4624 4.96243 10 8 10C11.0376 10 13.5 12.4624 13.5 15.5C13.5 18.5376 11.0376 21 8 21Z" stroke="white" stroke-width="2"/>
<path d="M12.5 14C9.18629 14 6.5 11.5376 6.5 8.5C6.5 5.46243 9.18629 3 12.5 3C15.8137 3 18.5 5.46243 18.5 8.5C18.5 11.5376 15.8137 14 12.5 14Z" stroke="white" stroke-width="2"/>
</svg>
